<svg width="45" height="43" viewBox="0 0 45 43" fill="none" xmlns="http://www.w3.org/2000/svg">
<path fill-rule="evenodd" clip-rule="evenodd" d="M34.1497 0.0429688H8.36474C5.29945 0.0429688 2.64709 2.43753 2.64709 5.38841V34.9375C2.64709 37.891 4.95268 40.2829 8.01533 40.2829H8.04709V43H13.2353V40.2829H29.1177V43H34.4118V40.2802C37.4612 40.2668 39.7006 37.8776 39.7006 34.9375V5.38841C39.7006 2.43484 37.2177 0.0429688 34.1497 0.0429688ZM37.1621 34.924C37.1621 36.73 35.8465 37.7378 34.3562 37.7378H8.04445C6.56209 37.7378 5.23857 36.8778 5.23857 35.0396V5.42066C5.23857 3.57972 6.37945 2.63103 7.98621 2.63103H34.4118C35.7327 2.63103 37.1594 3.88609 37.1594 5.41259L37.1621 34.924Z" fill="#FEFEFE"/>
<path fill-rule="evenodd" clip-rule="evenodd" d="M7.94116 34.9375H34.4117V5.375H7.94116V34.9375ZM21.1765 16.125C22.5805 16.125 23.9271 16.6913 24.92 17.6993C25.9128 18.7073 26.4706 20.0745 26.4706 21.5H29.1176V24.1875H25.7373C24.8188 25.7866 23.1326 26.875 21.1765 26.875C19.7724 26.875 18.4258 26.3087 17.4329 25.3007C16.4401 24.2927 15.8823 22.9255 15.8823 21.5C15.8823 20.0745 16.4401 18.7073 17.4329 17.6993C18.4258 16.6913 19.7724 16.125 21.1765 16.125Z" fill="#FEFEFE"/>
</svg>
